PathFileType	3	(X/Y/Z)	RCH0000002 BBF 10.c3d
DataRate	CameraRate	NumFrames	NumMarkers	Units	OrigDataRate	OrigDataStartFrame	OrigNumFrames
100.0	100.0	10	23	mm	100.0	340	464
Frame#	Time	MAN			RASI			LKNE			LANK			LHEE			LTOE			RPAT			RKNE			RANK			RMED			RHEE			RTOE			LPAT			RPSI			LMED			LASI			T2			LPSI			T10			RTHI			LTHI			RTIB			LTIB			
		X1	Y1	Z1	X2	Y2	Z2	X3	Y3	Z3	X4	Y4	Z4	X5	Y5	Z5	X6	Y6	Z6	X7	Y7	Z7	X8	Y8	Z8	X9	Y9	Z9	X10	Y10	Z10	X11	Y11	Z11	X12	Y12	Z12	X13	Y13	Z13	X14	Y14	Z14	X15	Y15	Z15	X16	Y16	Z16	X17	Y17	Z17	X18	Y18	Z18	X19	Y19	Z19	X20	Y20	Z20	X21	Y21	Z21	X22	Y22	Z22	X23	Y23	Z23	

340	3.390	150.67164	4.77652	946.00585	96.54350	-134.77243	665.58117	196.59334	45.72616	360.67328	151.45313	66.08515	97.16482	113.41152	23.40217	122.14673	200.84072	32.26349	89.46254	8.87038	-84.70906	375.16219	-41.09040	-140.71479	356.79378	-138.70126	-132.24450	94.33942	-153.10717	-67.20765	114.27511	-180.35475	-110.04174	138.05354	-102.17177	-88.71480	75.66037	224.38066	-11.94747	413.01962	-3.99996	-58.03399	706.92582	156.49647	-4.90580	104.65978	117.80420	38.62897	632.77355	19.16554	-17.81498	979.74783	1.55332	10.97978	688.88658	13.80711	-12.98808	791.87831	16.90491	-208.07062	453.93464	145.01805	120.05301	471.79745	-85.72453	-204.79054	241.03701	178.77079	116.81339	255.93793	
341	3.400	162.24006	5.46946	942.68825	107.73205	-135.93120	663.19419	212.48615	41.73345	358.22820	175.45000	65.55616	93.08267	135.05187	23.79247	116.72676	223.95835	30.41517	86.72359	17.57697	-85.26248	372.66183	-33.25838	-140.80642	355.47891	-136.93581	-132.26105	95.08158	-150.36079	-67.09833	115.27474	-177.32279	-109.67406	139.82176	-100.68582	-88.80120	75.34588	237.24237	-17.59784	410.54976	8.03614	-57.23156	703.79913	177.83691	-5.62301	100.36374	131.61319	37.24008	629.84716	30.62119	-16.74823	976.66513	14.52734	11.78172	685.47846	25.77170	-12.45499	788.69560	25.21332	-208.50789	452.10011	162.29430	116.85050	469.37691	-81.23660	-204.74333	240.83321	199.94277	114.20909	253.11792	
342	3.410	174.01603	6.31267	939.45329	119.44216	-137.04913	660.57960	227.53485	37.90111	355.42414	196.74045	65.03127	89.16517	154.25558	24.20122	111.68730	244.33471	28.62489	83.92904	27.21371	-85.77434	369.84448	-24.50735	-140.81341	353.82631	-134.54833	-132.41550	95.86361	-147.04682	-67.14503	116.32934	-173.53265	-109.50492	141.70481	-98.82973	-88.95087	74.93616	249.51948	-23.05394	407.51110	20.50019	-56.73274	700.69566	196.57485	-6.28758	96.23486	145.52503	35.94364	627.00022	42.27515	-15.57185	973.52825	27.77267	12.31561	682.27280	38.17531	-12.16278	785.51865	34.25299	-208.89766	450.01403	179.11337	113.69372	466.82614	-75.80125	-204.71555	240.49947	219.47108	111.62859	250.20758	
343	3.420	185.99200	7.28584	936.36489	131.66064	-138.10789	657.75092	241.69102	34.41726	352.37814	215.07378	64.59062	85.47430	170.83147	24.68051	107.15060	261.77316	27.00307	81.14560	37.88969	-86.22666	366.69188	-14.72345	-140.72012	351.79846	-131.40101	-132.71033	96.69574	-143.04211	-67.35233	117.45034	-168.82614	-109.54477	143.71186	-96.50614	-89.16822	74.44141	261.26008	-28.06168	404.05865	33.34636	-56.59281	697.67383	212.54673	-6.81695	92.38902	159.45407	34.78243	624.33016	54.12998	-14.31728	970.41834	41.21315	12.53129	679.35764	50.99265	-12.16051	782.42678	44.09777	-209.21965	447.66551	195.30702	110.74282	464.22788	-69.24718	-204.70215	240.00448	237.16007	109.22427	247.26482	
344	3.430	198.15089	8.35753	933.48471	144.35312	-139.08347	654.73197	254.89154	31.47449	349.22523	230.33307	64.33177	82.07105	184.70072	25.30021	103.21844	276.20226	25.67056	78.44700	49.69022	-86.59580	363.20252	-3.81426	-140.50970	349.37355	-127.37020	-133.13206	97.59863	-138.22742	-67.70492	118.65210	-163.06101	-109.77652	145.85337	-93.61513	-89.45241	73.88936	272.49236	-32.36367	400.36945	46.51089	-56.85603	694.79631	225.70694	-7.11555	88.93414	173.30228	33.79910	621.93500	66.17905	-13.02529	967.41961	54.75864	12.38691	676.81938	64.17995	-12.48781	779.50205	54.80966	-209.44932	445.05490	210.69075	108.16861	461.67788	-61.43692	-204.68784	239.32923	252.86655	107.16654	244.35397	
345	3.440	210.46570	9.48706	930.87224	157.46618	-139.94624	651.56041	267.05885	29.25385	346.10892	242.54902	64.35516	79.01081	195.90547	26.13787	99.96398	287.68380	24.74191	75.90757	62.67010	-86.85641	359.39965	8.28419	-140.16727	346.55377	-122.35012	-133.65444	98.60689	-132.49075	-68.17052	119.95442	-156.11882	-110.15822	148.14335	-90.05243	-89.80016	73.32868	283.21689	-35.72023	396.62950	59.91639	-57.55095	692.12973	236.13401	-7.08862	85.96181	186.96498	33.03377	619.90892	78.40572	-11.74470	964.61739	68.31136	11.85316	674.74006	77.67662	-13.17201	776.82737	66.43488	-209.56080	442.20008	225.07457	106.13778	459.27999	-52.27597	-204.65032	238.47571	266.51170	105.62661	241.54235	
346	3.450	222.89996	10.62707	928.58447	170.93056	-140.66220	648.29025	278.10526	27.90725	343.16988	251.89618	64.74746	76.33771	204.60333	27.26527	97.42513	296.40621	24.30824	73.59495	76.84983	-86.98548	355.33770	21.60309	-139.68284	343.37187	-116.25448	-134.24356	99.77040	-125.73042	-68.70540	121.38394	-147.91137	-110.62949	150.60065	-85.70704	-90.20916	72.82973	293.40262	-37.93289	393.01859	73.47706	-58.68602	689.74327	244.02306	-6.65779	83.53942	200.33792	32.52130	618.33707	90.78336	-10.53034	962.09560	81.77302	10.91754	673.19343	91.40802	-14.22551	774.48397	79.00044	-209.53028	439.14202	238.27790	104.79566	457.13905	-41.71674	-204.56446	237.47373	278.08587	104.75602	238.89551	
347	3.460	235.40883	11.72661	926.67502	184.66518	-141.19530	644.99288	287.94100	27.54027	340.53422	258.67065	65.56526	74.07916	211.04800	28.73349	95.60068	302.66383	24.42264	71.56352	92.21460	-86.96545	351.10595	36.13958	-139.05343	339.89487	-109.01613	-134.86402	101.15235	-117.85763	-69.26161	122.97367	-138.38495	-111.12083	153.24856	-80.45931	-90.68094	72.48190	302.98754	-38.86714	389.69502	87.10422	-60.24629	687.70600	249.66517	-5.77597	81.70389	213.32493	32.28855	617.28990	103.27600	-9.44026	959.93368	95.05208	9.58791	672.24039	105.28911	-15.64384	772.54788	92.51166	-209.33921	435.94839	250.14711	104.24878	455.35241	-29.75770	-204.40696	236.38456	287.64470	104.66618	236.47193	
348	3.470	247.94104	12.73464	925.19247	198.58169	-141.51084	641.75607	296.48505	28.19805	338.30304	263.25301	66.82221	72.24219	215.55924	30.55861	94.45033	306.82485	25.09054	69.84963	108.71582	-86.78603	346.82847	51.85822	-138.28405	336.22398	-100.58517	-135.48477	102.82337	-108.79869	-69.79458	124.76025	-127.52195	-111.56406	156.11210	-74.18023	-91.22262	72.38696	311.88470	-38.47120	386.78238	100.71163	-62.19189	686.08315	253.41673	-4.43910	80.45822	225.84518	32.35178	616.81802	115.83981	-8.53214	958.20307	108.07022	7.89460	671.92434	119.22874	-17.40454	771.08605	106.95070	-208.97695	432.71421	260.57299	104.55012	454.00123	-16.43804	-204.16052	235.29977	295.29700	105.41131	234.31787	
349	3.480	260.44138	13.60355	924.17818	212.58918	-141.57941	638.68064	303.67708	29.85662	336.54489	266.06310	68.48175	70.81288	218.48752	32.71084	93.89928	309.29355	26.26676	68.46949	126.27490	-86.44434	342.65967	68.69488	-137.38750	332.49054	-90.92580	-136.08346	104.85211	-98.49651	-70.26968	126.77879	-115.33924	-111.90233	159.21292	-66.73292	-91.84667	72.64875	319.99303	-36.78692	384.36077	114.22018	-64.45887	684.93188	255.66399	-2.69237	79.77176	237.83933	32.71471	616.94797	128.42515	-7.85929	956.96358	120.76739	5.89037	672.26715	133.13419	-19.46736	770.15217	122.27643	-208.44235	429.55889	269.50551	105.68999	453.14283	-1.82911	-203.81697	234.33490	301.18697	106.97801	232.46383	
